# xmcd CD database file
#
# Track frame offsets:
#	150
#	15857
#	33719
#	49770
#	65793
#	82770
#	96946
#	109658
#	124375
#	142223
#	159135
#
# Disc length: 2311 seconds
#
# Revision: 0
# Processed by: cddbd v1.5PL3 Copyright (c) Steve Scherf et al.
# Submitted via: CDex 1.50
#
DISCID=8e09050b
DTITLE=Spaw, Dewayne - No Place to Turn Around
DYEAR=1900
DGENRE=Country
TTITLE0=Your Love Got In the Way
TTITLE1=You Get Used to Somebody
TTITLE2=One Hanger At A Time
TTITLE3=The Glass
TTITLE4=I Just Called to Hear Your Voice
TTITLE5=For The Ride
TTITLE6=Good Old Fashioned Love
TTITLE7=No Place To Turn Around
TTITLE8=Storm Before The Calm
TTITLE9=Ghost of Rodeo
TTITLE10=Rescue 911
EXTD=
EXTT0=
EXTT1=
EXTT2=
EXTT3=
EXTT4=
EXTT5=
EXTT6=
EXTT7=
EXTT8=
EXTT9=
EXTT10=
PLAYORDER=
